<svg id="Layer_1" data-name="Layer 1" xmlns="http://www.w3.org/2000/svg" viewBox="0 0 495 495"><defs><style>.cls-1{fill:#fff;stroke:#3b5797;stroke-miterlimit:10;stroke-width:33px;}.cls-2{fill:#3b5797;}</style></defs><title>icon</title><circle class="cls-1" cx="247.5" cy="247.5" r="231"/><path class="cls-2" d="M140.24,295.73,120.06,386h-26l66-287h30.29l66.33,287H229.94l-20.76-90.27Zm63.74-29-19-82.62c-4.32-18.73-7.21-35.77-10.08-52.38h-.59c-2.88,17-6.05,34.5-9.81,52l-19,83Z" transform="translate(-9 -11)"/><path class="cls-2" d="M422.48,345.28q-17.53,34.22-56.39,34.22a81.45,81.45,0,0,1-34.29-7.4,62.72,62.72,0,0,1-25.95-21.45q-9.78-14.07-9.79-32.91a60.66,60.66,0,0,1,5.3-24.94,67.5,67.5,0,0,1,15.29-21.45,70.77,70.77,0,0,1,23.7-14.86,80.75,80.75,0,0,1,29.36-5.29q20,0,35.23,7.9t15.22,21.82a14.37,14.37,0,0,1-4.78,10.87,15.66,15.66,0,0,1-11,4.49q-6,0-9.13-2.75a13.7,13.7,0,0,1-4.21-5.66q-1-2.89-2.9-10.29-1.87-7.09-6.23-10.07t-12.18-3q-13.18,0-23.41,9.79t-10.22,36.61a80.63,80.63,0,0,0,4.13,26.38,40.1,40.1,0,0,0,13.05,19.06q8.91,7,21.81,7,14.35,0,21.9-7.11a78.75,78.75,0,0,0,13.33-16.67Z" transform="translate(-9 -11)"/></svg>