<?xml version="1.0" encoding="utf-8"?>
<!-- Generator: Adobe Illustrator 22.1.0, SVG Export Plug-In . SVG Version: 6.00 Build 0)  -->
<svg version="1.1" xmlns="http://www.w3.org/2000/svg" xmlns:xlink="http://www.w3.org/1999/xlink" x="0px" y="0px"
	 viewBox="0 0 216 216" style="enable-background:new 0 0 216 216;" xml:space="preserve">
<style type="text/css">
	.st0{display:none;}
	.st1{fill:#FFFFFF;stroke:#000000;stroke-miterlimit:10;}
	.st2{fill:none;stroke:#000000;stroke-width:4;stroke-miterlimit:10;}
	.st3{fill:none;stroke:#000000;stroke-miterlimit:10;}
	.st4{fill:none;stroke:#000000;stroke-width:2;stroke-miterlimit:10;}
	.st5{fill:none;stroke:#000000;stroke-linejoin:bevel;stroke-miterlimit:10;}
	.st6{fill:#FFFFFF;}
	.st7{fill:#FFFFFF;stroke:#000000;stroke-linecap:round;stroke-miterlimit:10;}
	.st8{fill:#64695E;}
	.st9{fill:#ED2024;}
</style>
<g id="Layer_2" class="st0">
</g>
<g id="Layer_1">
	<path class="st8" d="M155.4,143.4l-3.4-0.6l-1.8-1.7l0.3-1.8l-3.3-3.2c0,0-4.4-9.4-4.4-10.4l-1.1-2.9l2-2.5l-3.7-14.9l0.9-1.2
		l-0.4-3.3l0.2-7.3l25.5-4l-26-0.7l-1.6-3.9l20.4-11.8l-22.8,7.3l-5.1-3.4l11.1-19l-15.5,16.1l-7.5-1.4l-7.9-22l2.4,22.3l-7.5,3.1
		L84.2,63.1l18,15.4l-3.5,3.8l-18.5,2.5L80,78.2c0,0-9.4-28.4-9.5-29.2s-2.8-24.8-2.8-24.8L53.9,46.3L56,73.1l5.8,13.5l0.5,2.9
		l1.3,10.7l-4,10.2l-3.8,11l-0.7,6.3l0.4,8.8l3.6,1.8l6.2,2.5l-0.8,2.8l-0.9,5l0.9,2.1l4,0.8l2.7,4l94.3,1c0,0-5.1-7-5.1-8.2
		C160.3,147.1,155.4,143.4,155.4,143.4z M81.4,86.7l16.3,1.5l0.2,3.1l-11.5,2.6L81.4,86.7z M96.7,115.3l-6.8-11l0.8-2l-2.1-5.1
		l9.5-1.3l1.4,2.7l-0.9,8.5l2.5,1.2L96.7,115.3z M137.3,136.8l-0.6,1.6l-0.9,0l-1.7-6.2l-0.3-6.8c0,0,1.8,5.4,2.1,5.5
		c0.3,0.1,1.6,1.6,1.6,1.6l2.1,4.6L137.3,136.8z M135.2,99.4l-5.8,4.1l-19.5-0.2l-5.4-4.2L102,93l3-9.2l15.2-5.2l13.1,3.7l4.2,11.9
		L135.2,99.4z"/>
	<path class="st9" d="M118.8,81.9L109.3,98l18.7,0.2L118.8,81.9z M119.2,94c-2,0.4-3.8-0.4-4.1-1.8c-0.1-0.3,0-0.6,0-0.8l3.6,0.1
		l3.6-0.7C122.6,92.2,121.2,93.6,119.2,94z"/>
	<circle class="st9" cx="118.5" cy="91.6" r="1.3"/>
</g>
</svg>
