<?xml version="1.0" encoding="utf-8"?>
<!-- Generator: Adobe Illustrator 22.1.0, SVG Export Plug-In . SVG Version: 6.00 Build 0)  -->
<svg version="1.1" xmlns="http://www.w3.org/2000/svg" xmlns:xlink="http://www.w3.org/1999/xlink" x="0px" y="0px"
	 viewBox="0 0 216 216" style="enable-background:new 0 0 216 216;" xml:space="preserve">
<style type="text/css">
	.st0{display:none;}
	.st1{fill:#FFFFFF;stroke:#000000;stroke-miterlimit:10;}
	.st2{fill:none;stroke:#000000;stroke-width:4;stroke-miterlimit:10;}
	.st3{fill:none;stroke:#000000;stroke-miterlimit:10;}
	.st4{fill:none;stroke:#000000;stroke-width:2;stroke-miterlimit:10;}
	.st5{fill:none;stroke:#000000;stroke-linejoin:bevel;stroke-miterlimit:10;}
	.st6{fill:#FFFFFF;}
	.st7{fill:#FFFFFF;stroke:#000000;stroke-linecap:round;stroke-miterlimit:10;}
</style>
<g id="Layer_2" class="st0">
</g>
<g id="Layer_1">
	<path class="st6" d="M203.1,45l-3.5-12.6c0,0-1.1-2.2-1.5-2.2c-0.4,0-10.3,25-10.3,25l4.4,0.7L203.1,45z"/>
	<polygon class="st6" points="36.5,184.6 32.8,172.5 44.5,178 	"/>
	<line class="st1" x1="199.6" y1="30.7" x2="203.5" y2="45"/>
	<path class="st1" d="M203.1,43.4c1,2,0.6,4.8-1.1,7.7l-85.6,140.5c-3.1,5.1-9.4,8.6-14.2,7.8l-61.5-12.2c-3.4-0.5-4-0.9-5.1-4.6"/>
	<path class="st1" d="M98.7,190.3L37.5,178c-4.7-0.7-6.1-5.5-3-10.7l89.1-140.1c3.1-5.2,9.4-8.8,14.1-8l57.9,8.9
		c4.7,0.7,6.1,5.5,3,10.7l-85.7,143.4C109.8,187.4,103.5,191,98.7,190.3z"/>
	<line class="st7" x1="122.9" y1="36.4" x2="189.1" y2="46.2"/>
	<line class="st7" x1="144.3" y1="30.7" x2="172.5" y2="34.9"/>
	<line class="st7" x1="50.7" y1="152.5" x2="116.3" y2="165.6"/>
	<circle cx="179.9" cy="36.4" r="1.9"/>
	<ellipse transform="matrix(0.7526 -0.6585 0.6585 0.7526 -93.4789 91.4136)" class="st3" cx="74.9" cy="170.1" rx="8.8" ry="6.8"/>
	<line class="st1" x1="33.1" y1="174" x2="35.7" y2="183.1"/>
</g>
</svg>
