<svg id="Layer_1" data-name="Layer 1" xmlns="http://www.w3.org/2000/svg" viewBox="0 0 216 216"><defs><style>.cls-1{fill:#c2251d;}.cls-2{fill:#fff;}</style></defs><path class="cls-1" d="M214.39,89.34H191.62v78.38H160.28V89.34H136.69V67.07H208A108,108,0,0,0,108,0h0A108,108,0,0,0,0,108H0a107.6,107.6,0,0,0,9.26,43.81c-.54-6.74-.77-14.13-.77-22.2,0-59.08,15.77-80.29,64.85-80.29,42.73,0,58.75,19.05,58.75,48.91V108H86.31V99.31c0-17.53-3.81-22.72-13-22.72-14.49,0-16,11.25-16,53s1.53,53,16,53c11.7,0,14.25-8.65,14.25-37.87h45.78v11.47c0,43.28-29.76,53.67-60,53.67h-1.2A107.8,107.8,0,0,0,108,216h0A108,108,0,0,0,216,108h0A108.28,108.28,0,0,0,214.39,89.34Z"/><path class="cls-2" d="M133.37,156.23V144.76H87.59c0,29.22-2.55,37.87-14.25,37.87-14.49,0-16-11.25-16-53s1.53-53,16-53c9.16,0,13,5.19,13,22.72V108h45.78V98.23c0-29.86-16-48.91-58.75-48.91-49.08,0-64.85,21.21-64.85,80.29,0,8.07.23,15.46.77,22.2a108.3,108.3,0,0,0,62.88,58.08h1.2C103.61,209.9,133.37,199.51,133.37,156.23Z"/><path class="cls-2" d="M136.69,89.34h23.59v78.38h31.34V89.34h22.77A107.57,107.57,0,0,0,208,67.07H136.69Z"/></svg>