<?xml version="1.0" encoding="utf-8"?>
<!-- Generator: Adobe Illustrator 25.2.1, SVG Export Plug-In . SVG Version: 6.00 Build 0)  -->
<svg version="1.1" id="Layer_1" xmlns="http://www.w3.org/2000/svg" xmlns:xlink="http://www.w3.org/1999/xlink" x="0px" y="0px"
	 viewBox="0 0 792 612" style="enable-background:new 0 0 792 612;" xml:space="preserve">
<style type="text/css">
	.st0{fill:none;}
	.st1{fill:#BC2025;}
	.st2{fill:#FABC14;}
</style>
<g>
	<path class="st0" d="M239.2,579.5v-9.9C148.3,516.4,87.3,418.3,87.3,306C87.3,137,225.5,0,396,0H87.3v612H396
		c-49.8,0-96.8-11.7-138.5-32.5H239.2z"/>
	<path class="st0" d="M553.2,569.4v10h-18.4C493.1,600.2,445.9,612,396,612h308.7V306.8C704.4,418.5,643.7,516.2,553.2,569.4z"/>
	<path class="st0" d="M704.7,305.2V0H396C566.2,0,704.2,136.6,704.7,305.2z"/>
	<path class="st1" d="M435.8,368.4c-18.1-11.7-31.6-25.8-39.8-41.3c-8.2,15.5-21.7,29.5-39.8,41.3C340,378.8,321,386.8,300.3,392
		v80.3c51.6-19.2,86.2-54.5,86.2-94.8h0h19h0c0,40.4,34.8,75.7,86.6,94.9v-80.4C471.3,386.9,452.2,378.9,435.8,368.4z"/>
	<path class="st1" d="M471,365.1v-71.2c-16.6-4.1-31.9-10.5-44.9-18.9c-13.3-8.6-23.5-18.8-30.2-30c-6.7,11.2-16.9,21.4-30.2,30
		c-12.9,8.3-28,14.7-44.4,18.8v71.1c39.2-16,65.1-43.6,65.1-74.8h19v0h0C405.5,321.5,431.6,349.1,471,365.1z"/>
	<path class="st1" d="M87.3,306c0,112.3,61,210.4,151.9,263.6v-63.9c-9.4,0.9-19,1.4-28.7,1.4v-19.4c25.2,0,49.2-3.3,70.8-9.3v-82.6
		c-12.5,2-25.5,3.1-38.7,3.1v-19.4c21.3,0,41.6-2.9,59.8-8.1v-74c-8.7,1.2-17.7,1.9-26.8,1.9V280c60.1,0,110.9-31.2,110.9-68.1h0h19
		c0,36.9,50.8,68.1,110.9,68.1v19.4c0,0,0,0,0,0h0v0c-9,0-17.8-0.6-26.3-1.8v74c18.1,5.1,38.2,8,59.3,8v19.4c-13,0-25.9-1-38.3-3
		v82.6c21.6,5.9,45.4,9.2,70.4,9.2v19.4c-9.5,0-19-0.5-28.2-1.3v63.6c90.5-53.2,151.2-150.8,151.4-262.6v-1.6
		C704.2,136.6,566.2,0,396,0C225.5,0,87.3,137,87.3,306z M396,146.7c11.7,0,21.2,9.7,21.2,21.7c0,12-9.5,21.7-21.2,21.7
		c-11.7,0-21.2-9.7-21.2-21.7C374.8,156.4,384.3,146.7,396,146.7z"/>
	<path class="st1" d="M534.3,579.4v-76c-33.3-5.4-64-16.6-89-32.8c-23-14.8-39.7-32.8-49.3-52.6c-9.6,19.8-26.3,37.7-49.3,52.6
		c-24.9,16.1-55.4,27.3-88.6,32.8v76.3h-0.7C299.2,600.3,346.2,612,396,612c49.9,0,97.1-11.8,138.8-32.6H534.3z"/>
	<path class="st2" d="M321.4,282.4v11.3c16.4-4.1,31.5-10.4,44.4-18.8c13.3-8.6,23.5-18.8,30.2-30c-6.2-10.4-9.5-21.6-9.5-33.2h0
		c0,36.9-50.8,68.1-110.9,68.1v19.4c9.1,0,18.1-0.6,26.8-1.9v-15H321.4z"/>
	<path class="st2" d="M426.2,275c13,8.4,28.3,14.8,44.9,18.9v-11.7h19v15.3c8.6,1.2,17.4,1.8,26.3,1.8V280
		c-60.1,0-110.9-31.2-110.9-68.1c0,11.6-3.3,22.9-9.5,33.2C402.7,256.2,412.9,266.4,426.2,275z"/>
	<polygon class="st2" points="516.4,299.3 516.3,299.3 516.3,299.3 	"/>
	<path class="st2" d="M405.5,211.8h-19c0,11.6,3.3,22.9,9.5,33.2C402.2,234.7,405.5,223.5,405.5,211.8z"/>
	<path class="st2" d="M300.3,389.2v2.7c20.6-5.2,39.6-13.1,55.8-23.6c18.1-11.7,31.6-25.8,39.8-41.3c-6.2-11.7-9.5-24.2-9.5-37h19v0
		h-19c0,31.3-25.9,58.8-65.1,74.8v9.7h-19v-3.2c-18.2,5.2-38.5,8.1-59.8,8.1v19.4c13.2,0,26.2-1,38.7-3.1v-6.6H300.3z"/>
	<path class="st2" d="M471,374.5v-9.4c-39.4-16-65.6-43.6-65.6-75h0c0,12.9-3.3,25.3-9.5,37c8.2,15.5,21.7,29.5,39.8,41.3
		c16.3,10.5,35.5,18.6,56.3,23.7V389h19v6.9c12.4,2,25.2,3,38.3,3v-19.4c-21.1,0-41.2-2.9-59.3-8v2.9H471z"/>
	<path class="st2" d="M386.5,290.1c0,12.9,3.2,25.3,9.5,37c6.2-11.7,9.5-24.2,9.5-37H386.5z"/>
	<path class="st2" d="M386.5,377.5c0,40.2-34.6,75.5-86.2,94.8v14.8h-19v-8.7c-21.7,6-45.7,9.3-70.8,9.3v19.4
		c9.7,0,19.3-0.5,28.7-1.4v-8.6h19v6.1c33.2-5.5,63.6-16.6,88.6-32.8c23-14.8,39.7-32.8,49.3-52.6
		C389.8,405.1,386.5,391.5,386.5,377.5L386.5,377.5z"/>
	<path class="st2" d="M553.2,497v8.8c9.3,0.9,18.7,1.3,28.2,1.3v-19.4c-25,0-48.8-3.3-70.4-9.2v8.4h-19v-14.5
		c-51.8-19.2-86.6-54.6-86.6-94.9h0c0,14-3.2,27.5-9.5,40.4c9.6,19.8,26.3,37.7,49.3,52.6c25.1,16.2,55.7,27.4,89,32.8V497H553.2z"
		/>
	<path class="st2" d="M386.5,377.5c0,14,3.2,27.5,9.5,40.4c6.2-12.8,9.5-26.4,9.5-40.4H386.5z"/>
	<path class="st2" d="M534.3,503.4v76h0.5c6.3-3.1,12.4-6.5,18.4-10v-63.6C546.8,505.2,540.5,504.4,534.3,503.4z"/>
	<path class="st2" d="M553.2,497h-19v6.4c6.2,1,12.6,1.8,19,2.4V497z"/>
	<path class="st2" d="M239.2,569.6c6,3.5,12.1,6.8,18.3,9.9h0.7v-76.3c-6.2,1-12.6,1.9-19,2.5V569.6z"/>
	<path class="st2" d="M239.2,497.1v8.6c6.4-0.6,12.7-1.4,19-2.5v-6.1H239.2z"/>
	<path class="st2" d="M492.1,472.5c6.1,2.3,12.4,4.3,19,6.1v-82.6c-6.4-1-12.8-2.3-19-3.8V472.5z"/>
	<path class="st2" d="M492.1,389v3.1c6.2,1.5,12.5,2.8,19,3.8V389H492.1z"/>
	<path class="st2" d="M492.1,486.9h19v-8.4c-6.5-1.8-12.9-3.8-19-6.1V486.9z"/>
	<path class="st2" d="M300.3,392c-6.2,1.5-12.5,2.8-19,3.9v82.6c6.5-1.8,12.9-3.9,19-6.1V392z"/>
	<path class="st2" d="M300.3,389.2h-19v6.6c6.5-1,12.8-2.3,19-3.9V389.2z"/>
	<path class="st2" d="M300.3,487.1v-14.8c-6.1,2.3-12.4,4.3-19,6.1v8.7H300.3z"/>
	<path class="st2" d="M471,365.1c6,2.4,12.4,4.6,19,6.5v-74c-6.5-0.9-12.8-2.1-19-3.6V365.1z"/>
	<path class="st2" d="M471,282.2v11.7c6.2,1.5,12.5,2.7,19,3.6v-15.3H471z"/>
	<path class="st2" d="M471,374.5h19v-2.9c-6.6-1.9-12.9-4-19-6.5V374.5z"/>
	<path class="st2" d="M321.4,293.8c-6.2,1.5-12.5,2.8-19,3.7v74c6.6-1.9,12.9-4.1,19-6.5V293.8z"/>
	<path class="st2" d="M321.4,282.4h-19v15c6.5-0.9,12.8-2.1,19-3.7V282.4z"/>
	<path class="st2" d="M321.4,374.7v-9.7c-6,2.5-12.4,4.6-19,6.5v3.2H321.4z"/>
	<ellipse class="st2" cx="396" cy="168.3" rx="21.2" ry="21.7"/>
</g>
</svg>
