<?xml version="1.0" encoding="utf-8"?>
<!-- Generator: Adobe Illustrator 22.1.0, SVG Export Plug-In . SVG Version: 6.00 Build 0)  -->
<svg version="1.1" id="Layer_1" xmlns="http://www.w3.org/2000/svg" xmlns:xlink="http://www.w3.org/1999/xlink" x="0px" y="0px"
	 viewBox="0 0 792 792" style="enable-background:new 0 0 792 792;" xml:space="preserve">
<style type="text/css">
	.st0{fill:none;stroke:#231F20;stroke-width:12;stroke-linecap:square;stroke-miterlimit:10;}
	.st1{fill:none;stroke:#231F20;stroke-width:9;stroke-miterlimit:10;}
	.st2{fill:none;stroke:#231F20;stroke-width:6;stroke-linecap:square;stroke-miterlimit:10;}
	.st3{fill:none;stroke:#FFFFFF;stroke-width:17;stroke-miterlimit:10;}
	.st4{fill:#FFFFFF;stroke:#231F20;stroke-width:9;stroke-miterlimit:10;}
	.st5{fill:none;stroke:#231F20;stroke-width:12;stroke-miterlimit:10;}
	.st6{fill:#FFFFFF;stroke:#231F20;stroke-width:6;stroke-miterlimit:10;}
	.st7{fill-rule:evenodd;clip-rule:evenodd;fill:#231F20;}
	.st8{fill:none;stroke:#231F20;stroke-width:4;stroke-miterlimit:10;}
	.st9{fill:#FFFFFF;}
	.st10{fill:#231F20;}
	.st11{fill:none;stroke:#231F20;stroke-width:6;stroke-miterlimit:10;}
	.st12{fill:none;stroke:#231F20;stroke-width:12;stroke-linecap:square;stroke-linejoin:round;stroke-miterlimit:10;}
	.st13{fill:none;stroke:#231F20;stroke-width:6;stroke-linejoin:round;stroke-miterlimit:10;}
	.st14{fill:none;stroke:#231F20;stroke-width:11;stroke-linecap:square;stroke-miterlimit:10;}
</style>
<g>
	<circle class="st0" cx="621" cy="170.6" r="88.3"/>
	<polyline class="st1" points="621,105.7 621,170.6 651.3,201.5 	"/>
</g>
<g>
	<path class="st2" d="M356.4,215.2c-13.3-11.2-21.7-28-21.7-46.7c0-33.8,27.4-61.3,61.3-61.3s61.3,27.4,61.3,61.3
		c0,18.2-7.9,34.5-20.5,45.7"/>
	<circle class="st0" cx="395.9" cy="170.6" r="88.3"/>
	<line class="st3" x1="395.9" y1="170.6" x2="342.7" y2="117.4"/>
	<line class="st4" x1="395.9" y1="170.6" x2="342.7" y2="117.4"/>
	<circle class="st4" cx="395.9" cy="170.6" r="13.5"/>
</g>
<g>
	<circle class="st0" cx="620.1" cy="395.6" r="88.3"/>
	<line class="st1" x1="673.6" y1="342.1" x2="650.6" y2="365.1"/>
</g>
<g>
	<circle class="st5" cx="396" cy="396" r="88.3"/>
	<path class="st4" d="M373.8,330.4c0-12.5,10-22.7,22.2-22.7h0c12.3,0,22.2,10.1,22.2,22.7v131.2c0,12.5-10,22.7-22.2,22.7h0
		c-12.3,0-22.2-10.1-22.2-22.7V330.4z"/>
	<ellipse class="st6" cx="396" cy="330.6" rx="9" ry="9"/>
</g>
<g>
	<circle class="st0" cx="396" cy="620.5" r="88.3"/>
	<polygon class="st7" points="395.9,548.1 413.9,529.4 377.9,529.4 	"/>
	<g>
		<line class="st8" x1="396" y1="620.5" x2="348.3" y2="668.2"/>
		<line class="st8" x1="396" y1="620.5" x2="356.3" y2="675.1"/>
		<line class="st8" x1="396" y1="620.5" x2="365.4" y2="680.6"/>
		<line class="st8" x1="396" y1="620.5" x2="375.2" y2="684.7"/>
		<line class="st8" x1="396" y1="620.5" x2="385.5" y2="687.2"/>
		<line class="st8" x1="396" y1="620.5" x2="396" y2="688"/>
		<line class="st8" x1="396" y1="620.5" x2="406.6" y2="687.2"/>
		<line class="st8" x1="396" y1="620.5" x2="416.9" y2="684.7"/>
		<line class="st8" x1="396" y1="620.5" x2="426.7" y2="680.7"/>
		<line class="st8" x1="396" y1="620.5" x2="435.7" y2="675.1"/>
		<line class="st8" x1="396" y1="620.5" x2="443.8" y2="668.2"/>
		<line class="st8" x1="396" y1="620.5" x2="450.6" y2="660.2"/>
		<line class="st8" x1="396" y1="620.5" x2="456.2" y2="651.2"/>
		<line class="st8" x1="396" y1="620.5" x2="460.2" y2="641.4"/>
		<line class="st8" x1="396" y1="620.5" x2="462.7" y2="631.1"/>
		<line class="st8" x1="396" y1="620.5" x2="463.5" y2="620.5"/>
		<line class="st8" x1="396" y1="620.5" x2="462.7" y2="609.9"/>
		<line class="st8" x1="396" y1="620.5" x2="460.2" y2="599.6"/>
		<line class="st8" x1="396" y1="620.5" x2="456.2" y2="589.8"/>
		<line class="st8" x1="396" y1="620.5" x2="450.6" y2="580.8"/>
		<line class="st8" x1="396" y1="620.5" x2="443.7" y2="572.7"/>
		<line class="st8" x1="396" y1="620.5" x2="435.7" y2="565.9"/>
		<line class="st8" x1="396" y1="620.5" x2="426.6" y2="560.3"/>
		<line class="st8" x1="396" y1="620.5" x2="416.8" y2="556.3"/>
		<line class="st8" x1="396" y1="620.5" x2="406.5" y2="553.8"/>
		<line class="st8" x1="396" y1="620.5" x2="396" y2="553"/>
		<line class="st8" x1="396" y1="620.5" x2="385.4" y2="553.8"/>
		<line class="st8" x1="396" y1="620.5" x2="375.1" y2="556.2"/>
		<line class="st8" x1="396" y1="620.5" x2="365.3" y2="560.3"/>
		<line class="st8" x1="396" y1="620.5" x2="356.3" y2="565.8"/>
		<line class="st8" x1="396" y1="620.5" x2="348.2" y2="572.7"/>
		<line class="st8" x1="396" y1="620.5" x2="341.4" y2="580.8"/>
		<line class="st8" x1="396" y1="620.5" x2="335.8" y2="589.8"/>
		<line class="st8" x1="396" y1="620.5" x2="331.8" y2="599.6"/>
		<line class="st8" x1="396" y1="620.5" x2="329.3" y2="609.9"/>
		<line class="st8" x1="396" y1="620.5" x2="328.5" y2="620.5"/>
		<line class="st8" x1="396" y1="620.5" x2="329.3" y2="631"/>
		<line class="st8" x1="396" y1="620.5" x2="331.8" y2="641.3"/>
		<line class="st8" x1="396" y1="620.5" x2="335.8" y2="651.1"/>
		<line class="st8" x1="396" y1="620.5" x2="341.4" y2="660.1"/>
	</g>
	<circle class="st9" cx="395" cy="621.5" r="57.6"/>
	<g>
		<line class="st8" x1="396" y1="620.5" x2="396" y2="688"/>
		<line class="st8" x1="396" y1="620.5" x2="443.8" y2="668.2"/>
		<line class="st8" x1="396" y1="620.5" x2="463.6" y2="620.5"/>
		<line class="st8" x1="396" y1="620.5" x2="443.8" y2="572.7"/>
		<line class="st8" x1="396" y1="620.5" x2="396" y2="553"/>
		<line class="st8" x1="396" y1="620.5" x2="348.2" y2="572.7"/>
		<line class="st8" x1="396" y1="620.5" x2="328.4" y2="620.5"/>
		<line class="st8" x1="396" y1="620.5" x2="348.2" y2="668.2"/>
	</g>
	<circle class="st9" cx="396" cy="620.5" r="49.5"/>
	<g>
		<path class="st10" d="M395.9,584.5c19.9,0,36,16.1,36,36s-16.1,36-36,36s-36-16.1-36-36S376,584.5,395.9,584.5 M395.9,575.5
			c-24.9,0-45,20.1-45,45c0,24.9,20.1,45,45,45s45-20.1,45-45C440.9,595.6,420.8,575.5,395.9,575.5L395.9,575.5z"/>
	</g>
	<circle class="st11" cx="396" cy="620.5" r="67.5"/>
</g>
<g>
	<g>
		<ellipse class="st10" cx="171" cy="103.1" rx="4.5" ry="4.5"/>
		<ellipse class="st10" cx="171" cy="238.1" rx="4.5" ry="4.5"/>
		<ellipse class="st10" cx="238.5" cy="170.6" rx="4.5" ry="4.5"/>
		<ellipse class="st10" cx="103.5" cy="170.6" rx="4.5" ry="4.5"/>
	</g>
	<circle class="st12" cx="171" cy="170.6" r="88.3"/>
	<g>
		<line class="st13" x1="171" y1="170.6" x2="171" y2="224.6"/>
		<line class="st13" x1="171" y1="170.6" x2="225" y2="170.6"/>
		<line class="st13" x1="171" y1="170.6" x2="171" y2="116.6"/>
		<line class="st13" x1="171" y1="170.6" x2="117" y2="170.6"/>
	</g>
	<g>
		<polygon class="st9" points="158.2,183.4 132.7,132.3 183.8,157.8 209.3,208.9 		"/>
		<path class="st10" d="M139.4,139l42.1,21.1l21.1,42.1l-42.1-21.1L139.4,139 M126,125.6l30,60l60,30l-30-60L126,125.6L126,125.6z"
			/>
	</g>
</g>
<g>
	<ellipse class="st11" cx="171" cy="395.7" rx="63.1" ry="63"/>
	<ellipse class="st11" cx="171" cy="396" rx="34.4" ry="34.4"/>
	<polygon class="st9" points="171,382.8 165.9,393.3 109.1,334.4 171,307.7 	"/>
	<circle class="st0" cx="171" cy="396" r="88.3"/>
	<line class="st11" x1="171" y1="307.7" x2="171" y2="484.3"/>
	<line class="st11" x1="259.3" y1="396" x2="82.7" y2="396"/>
	<line class="st1" x1="171" y1="396.3" x2="109.1" y2="334.4"/>
	<g>
		<ellipse class="st9" cx="171" cy="396.3" rx="10.5" ry="10.5"/>
		<path class="st10" d="M171,388.8c4.1,0,7.5,3.4,7.5,7.5s-3.4,7.5-7.5,7.5s-7.5-3.4-7.5-7.5S166.9,388.8,171,388.8 M171,382.8
			c-7.5,0-13.5,6-13.5,13.5s6,13.5,13.5,13.5s13.5-6,13.5-13.5S178.5,382.8,171,382.8L171,382.8z"/>
	</g>
</g>
<g>
	<circle class="st14" cx="171" cy="620.6" r="88.3"/>
	<g>
		<path class="st10" d="M144.9,554.2c4.1,0,7.5,3.4,7.5,7.5s-3.4,7.5-7.5,7.5s-7.5-3.4-7.5-7.5S140.8,554.2,144.9,554.2
			 M144.9,548.2c-7.5,0-13.5,6-13.5,13.5c0,7.5,6,13.5,13.5,13.5s13.5-6,13.5-13.5C158.4,554.3,152.4,548.2,144.9,548.2L144.9,548.2
			z"/>
	</g>
	<g>
		<path class="st10" d="M173.1,547.8c4.1,0,7.5,3.4,7.5,7.5s-3.4,7.5-7.5,7.5s-7.5-3.4-7.5-7.5S168.9,547.8,173.1,547.8
			 M173.1,541.8c-7.5,0-13.5,6-13.5,13.5c0,7.5,6,13.5,13.5,13.5s13.5-6,13.5-13.5C186.6,547.9,180.5,541.8,173.1,541.8L173.1,541.8
			z"/>
	</g>
	<g>
		<path class="st10" d="M122.4,572.2c4.1,0,7.5,3.4,7.5,7.5s-3.4,7.5-7.5,7.5s-7.5-3.4-7.5-7.5S118.2,572.2,122.4,572.2
			 M122.4,566.2c-7.5,0-13.5,6-13.5,13.5s6,13.5,13.5,13.5c7.5,0,13.5-6,13.5-13.5S129.8,566.2,122.4,566.2L122.4,566.2z"/>
	</g>
	<g>
		<path class="st10" d="M109.9,598.2c4.1,0,7.5,3.4,7.5,7.5s-3.4,7.5-7.5,7.5s-7.5-3.4-7.5-7.5S105.7,598.2,109.9,598.2
			 M109.9,592.2c-7.5,0-13.5,6-13.5,13.5c0,7.5,6,13.5,13.5,13.5c7.5,0,13.5-6,13.5-13.5C123.4,598.3,117.3,592.2,109.9,592.2
			L109.9,592.2z"/>
	</g>
	<g>
		<path class="st10" d="M109.9,627.1c4.1,0,7.5,3.4,7.5,7.5s-3.4,7.5-7.5,7.5s-7.5-3.4-7.5-7.5S105.7,627.1,109.9,627.1
			 M109.9,621.1c-7.5,0-13.5,6-13.5,13.5s6,13.5,13.5,13.5c7.5,0,13.5-6,13.5-13.5S117.3,621.1,109.9,621.1L109.9,621.1z"/>
	</g>
	<g>
		<path class="st10" d="M122.4,653.1c4.1,0,7.5,3.4,7.5,7.5s-3.4,7.5-7.5,7.5s-7.5-3.4-7.5-7.5S118.2,653.1,122.4,653.1
			 M122.4,647.1c-7.5,0-13.5,6-13.5,13.5c0,7.5,6,13.5,13.5,13.5c7.5,0,13.5-6,13.5-13.5C135.9,653.1,129.8,647.1,122.4,647.1
			L122.4,647.1z"/>
	</g>
	<g>
		<path class="st10" d="M144.9,671c4.1,0,7.5,3.4,7.5,7.5s-3.4,7.5-7.5,7.5s-7.5-3.4-7.5-7.5S140.8,671,144.9,671 M144.9,665
			c-7.5,0-13.5,6-13.5,13.5c0,7.5,6,13.5,13.5,13.5s13.5-6,13.5-13.5C158.4,671.1,152.4,665,144.9,665L144.9,665z"/>
	</g>
	<g>
		<path class="st10" d="M173.1,677.5c4.1,0,7.5,3.4,7.5,7.5s-3.4,7.5-7.5,7.5s-7.5-3.4-7.5-7.5S168.9,677.5,173.1,677.5
			 M173.1,671.5c-7.5,0-13.5,6-13.5,13.5c0,7.5,6,13.5,13.5,13.5s13.5-6,13.5-13.5C186.6,677.5,180.5,671.5,173.1,671.5L173.1,671.5
			z"/>
	</g>
	<g>
		<path class="st10" d="M201.2,554.2c4.1,0,7.5,3.4,7.5,7.5s-3.4,7.5-7.5,7.5s-7.5-3.4-7.5-7.5S197,554.2,201.2,554.2 M201.2,548.2
			c-7.5,0-13.5,6-13.5,13.5c0,7.5,6,13.5,13.5,13.5s13.5-6,13.5-13.5C214.7,554.3,208.6,548.2,201.2,548.2L201.2,548.2z"/>
	</g>
	<g>
		<path class="st10" d="M201.2,671c4.1,0,7.5,3.4,7.5,7.5s-3.4,7.5-7.5,7.5s-7.5-3.4-7.5-7.5S197,671,201.2,671 M201.2,665
			c-7.5,0-13.5,6-13.5,13.5c0,7.5,6,13.5,13.5,13.5s13.5-6,13.5-13.5C214.7,671.1,208.6,665,201.2,665L201.2,665z"/>
	</g>
	<g>
		<path class="st10" d="M171,584.6c19.9,0,36,16.1,36,36s-16.1,36-36,36c-19.9,0-36-16.1-36-36S151.1,584.6,171,584.6 M171,575.6
			c-24.8,0-45,20.2-45,45s20.2,45,45,45s45-20.2,45-45S195.8,575.6,171,575.6L171,575.6z"/>
	</g>
	<polygon class="st7" points="210.2,650.9 225.9,684.7 246,661 	"/>
</g>
<g>
	<circle class="st0" cx="621" cy="620.8" r="88.3"/>
	<g>
		<path class="st10" d="M621,584.8c19.9,0,36,16.1,36,36s-16.1,36-36,36s-36-16.1-36-36S601.1,584.8,621,584.8 M621,575.8
			c-24.9,0-45,20.1-45,45c0,24.9,20.1,45,45,45c24.9,0,45-20.1,45-45C666,596,645.9,575.8,621,575.8L621,575.8z"/>
	</g>
	<polygon class="st7" points="541.3,620.9 570.9,638 570.9,603.8 	"/>
	<polygon class="st7" points="700.7,620.9 671.1,603.8 671.1,638 	"/>
	<polygon class="st7" points="621,700.6 638.1,671 603.9,671 	"/>
	<polygon class="st7" points="621,541.2 603.9,570.8 638.1,570.8 	"/>
</g>
</svg>
